<mxfile host="app.diagrams.net" modified="2021-11-12T20:52:34.078Z" agent="5.0 (X11; Linux x86_64) AppleWebKit/537.36 (KHTML, like Gecko) Chrome/95.0.4638.69 Safari/537.36" etag="c01jpvYDr8VkJGleRFqm" version="15.7.3" type="github">
  <diagram id="C5RBs43oDa-KdzZeNtuy" name="Page-1">
    <mxGraphModel dx="1338" dy="933" grid="1" gridSize="10" guides="1" tooltips="1" connect="1" arrows="1" fold="1" page="0" pageScale="1" pageWidth="827" pageHeight="1169" math="0" shadow="0">
      <root>
        <mxCell id="WIyWlLk6GJQsqaUBKTNV-0" />
        <mxCell id="WIyWlLk6GJQsqaUBKTNV-1" parent="WIyWlLk6GJQsqaUBKTNV-0" />
        <object label="&lt;span style=&quot;background-color: rgb(255 , 242 , 204)&quot;&gt;new&amp;nbsp;&lt;br&gt;&lt;font color=&quot;#7f00ff&quot;&gt;(QA)&lt;/font&gt;&lt;/span&gt;" id="WIyWlLk6GJQsqaUBKTNV-3">
          <mxCell style="rounded=1;whiteSpace=wrap;html=1;fontSize=12;glass=0;strokeWidth=1;shadow=1;arcSize=24;labelBorderColor=none;labelBackgroundColor=default;strokeColor=#FFE599;fillColor=#FFF2CC;" parent="WIyWlLk6GJQsqaUBKTNV-1" vertex="1">
            <mxGeometry x="-40" y="69.9988888888889" width="120" height="40" as="geometry" />
          </mxCell>
        </object>
        <mxCell id="WIyWlLk6GJQsqaUBKTNV-6" value="в работе&lt;br&gt;(in progress)&lt;br&gt;&lt;span style=&quot;color: rgb(153 , 0 , 153)&quot;&gt;(Dev)&lt;/span&gt;" style="rhombus;whiteSpace=wrap;html=1;shadow=1;fontFamily=Helvetica;fontSize=12;align=center;strokeWidth=1;spacing=6;spacingTop=-4;fillColor=#FFF2CC;strokeColor=#FFF2CC;" parent="WIyWlLk6GJQsqaUBKTNV-1" vertex="1">
          <mxGeometry x="200" y="49.9988888888889" width="100" height="80" as="geometry" />
        </mxCell>
        <mxCell id="WIyWlLk6GJQsqaUBKTNV-7" value="resolved" style="rounded=1;whiteSpace=wrap;html=1;fontSize=12;glass=0;strokeWidth=1;shadow=1;fillColor=#FFF2CC;strokeColor=#FFF2CC;" parent="WIyWlLk6GJQsqaUBKTNV-1" vertex="1">
          <mxGeometry x="480" y="70" width="120" height="40" as="geometry" />
        </mxCell>
        <mxCell id="WIyWlLk6GJQsqaUBKTNV-10" value="переоткрыт &lt;br&gt;(re-opened)&lt;br&gt;&lt;span style=&quot;color: rgb(127 , 0 , 255) ; background-color: rgb(255 , 242 , 204)&quot;&gt;(QA)&lt;/span&gt;" style="rhombus;whiteSpace=wrap;html=1;shadow=1;fontFamily=Helvetica;fontSize=12;align=center;strokeWidth=1;spacing=6;spacingTop=-4;strokeColor=#FFF2CC;fillColor=#FFF2CC;" parent="WIyWlLk6GJQsqaUBKTNV-1" vertex="1">
          <mxGeometry x="490" y="250" width="100" height="80" as="geometry" />
        </mxCell>
        <mxCell id="gau0r2_wHREcoYPE5UDH-1" value="" style="endArrow=classic;html=1;rounded=0;" edge="1" parent="WIyWlLk6GJQsqaUBKTNV-1" target="WIyWlLk6GJQsqaUBKTNV-6">
          <mxGeometry width="50" height="50" relative="1" as="geometry">
            <mxPoint x="80" y="90" as="sourcePoint" />
            <mxPoint x="130" y="40" as="targetPoint" />
          </mxGeometry>
        </mxCell>
        <mxCell id="gau0r2_wHREcoYPE5UDH-2" value="" style="endArrow=classic;html=1;rounded=0;exitX=1;exitY=0.75;exitDx=0;exitDy=0;" edge="1" parent="WIyWlLk6GJQsqaUBKTNV-1" source="WIyWlLk6GJQsqaUBKTNV-3" target="gau0r2_wHREcoYPE5UDH-3">
          <mxGeometry width="50" height="50" relative="1" as="geometry">
            <mxPoint x="80" y="210" as="sourcePoint" />
            <mxPoint x="130" y="160" as="targetPoint" />
          </mxGeometry>
        </mxCell>
        <mxCell id="gau0r2_wHREcoYPE5UDH-3" value="отклонен&lt;br&gt;&lt;font color=&quot;#990099&quot;&gt;(Dev, PM)&lt;/font&gt;" style="rhombus;whiteSpace=wrap;html=1;shadow=1;fontFamily=Helvetica;fontSize=12;align=center;strokeWidth=1;spacing=6;spacingTop=-4;fillColor=#FFF2CC;strokeColor=#FFF2CC;" vertex="1" parent="WIyWlLk6GJQsqaUBKTNV-1">
          <mxGeometry x="170" y="259.9988888888889" width="100" height="80" as="geometry" />
        </mxCell>
        <mxCell id="gau0r2_wHREcoYPE5UDH-4" value="closed&lt;br&gt;&lt;font color=&quot;#9933ff&quot;&gt;(QA)&lt;/font&gt;" style="rounded=1;whiteSpace=wrap;html=1;fontSize=12;glass=0;strokeWidth=1;shadow=1;strokeColor=#FFF2CC;fillColor=#FFF2CC;" vertex="1" parent="WIyWlLk6GJQsqaUBKTNV-1">
          <mxGeometry x="720" y="70" width="120" height="40" as="geometry" />
        </mxCell>
        <mxCell id="gau0r2_wHREcoYPE5UDH-11" value="" style="endArrow=classic;html=1;rounded=0;entryX=0;entryY=0.5;entryDx=0;entryDy=0;" edge="1" parent="WIyWlLk6GJQsqaUBKTNV-1" target="WIyWlLk6GJQsqaUBKTNV-7">
          <mxGeometry width="50" height="50" relative="1" as="geometry">
            <mxPoint x="300" y="89.66" as="sourcePoint" />
            <mxPoint x="420.0004084933946" y="89.65921568360469" as="targetPoint" />
          </mxGeometry>
        </mxCell>
        <mxCell id="gau0r2_wHREcoYPE5UDH-14" value="на &lt;br&gt;проверке &lt;br&gt;(on review)&lt;br&gt;&lt;span style=&quot;color: rgb(153 , 0 , 153)&quot;&gt;(Dev)&lt;/span&gt;" style="rhombus;whiteSpace=wrap;html=1;shadow=1;fontFamily=Helvetica;fontSize=12;align=center;strokeWidth=1;spacing=6;spacingTop=-4;fillColor=#FFF2CC;strokeColor=#FFF2CC;" vertex="1" parent="WIyWlLk6GJQsqaUBKTNV-1">
          <mxGeometry x="490" y="-60" width="100" height="80" as="geometry" />
        </mxCell>
        <mxCell id="gau0r2_wHREcoYPE5UDH-15" value="" style="endArrow=classic;html=1;rounded=0;" edge="1" parent="WIyWlLk6GJQsqaUBKTNV-1" source="WIyWlLk6GJQsqaUBKTNV-6" target="gau0r2_wHREcoYPE5UDH-14">
          <mxGeometry width="50" height="50" relative="1" as="geometry">
            <mxPoint x="510" y="-26.639999999999986" as="sourcePoint" />
            <mxPoint x="622" y="49.999999999999886" as="targetPoint" />
          </mxGeometry>
        </mxCell>
        <mxCell id="gau0r2_wHREcoYPE5UDH-19" value="" style="endArrow=classic;html=1;rounded=0;" edge="1" parent="WIyWlLk6GJQsqaUBKTNV-1">
          <mxGeometry width="50" height="50" relative="1" as="geometry">
            <mxPoint x="600" y="89.65" as="sourcePoint" />
            <mxPoint x="720.0004084933946" y="89.64921568360458" as="targetPoint" />
          </mxGeometry>
        </mxCell>
        <mxCell id="gau0r2_wHREcoYPE5UDH-20" value="" style="endArrow=classic;html=1;rounded=0;entryX=0;entryY=0.75;entryDx=0;entryDy=0;" edge="1" parent="WIyWlLk6GJQsqaUBKTNV-1" source="gau0r2_wHREcoYPE5UDH-3" target="gau0r2_wHREcoYPE5UDH-4">
          <mxGeometry width="50" height="50" relative="1" as="geometry">
            <mxPoint x="270" y="269.9988888888888" as="sourcePoint" />
            <mxPoint x="392.051282051282" y="444.35786324786295" as="targetPoint" />
          </mxGeometry>
        </mxCell>
        <mxCell id="gau0r2_wHREcoYPE5UDH-23" value="" style="endArrow=classic;html=1;rounded=0;exitX=0.499;exitY=1.062;exitDx=0;exitDy=0;exitPerimeter=0;" edge="1" parent="WIyWlLk6GJQsqaUBKTNV-1" source="gau0r2_wHREcoYPE5UDH-14" target="WIyWlLk6GJQsqaUBKTNV-7">
          <mxGeometry width="50" height="50" relative="1" as="geometry">
            <mxPoint x="510" y="50" as="sourcePoint" />
            <mxPoint x="630.0004084933946" y="49.999215683604575" as="targetPoint" />
          </mxGeometry>
        </mxCell>
        <mxCell id="gau0r2_wHREcoYPE5UDH-24" value="" style="endArrow=classic;html=1;rounded=0;exitX=0.534;exitY=1;exitDx=0;exitDy=0;exitPerimeter=0;entryX=0.541;entryY=0.066;entryDx=0;entryDy=0;entryPerimeter=0;" edge="1" parent="WIyWlLk6GJQsqaUBKTNV-1" source="WIyWlLk6GJQsqaUBKTNV-7" target="WIyWlLk6GJQsqaUBKTNV-10">
          <mxGeometry width="50" height="50" relative="1" as="geometry">
            <mxPoint x="539.6600000000001" y="119.99999999999993" as="sourcePoint" />
            <mxPoint x="539.729249692497" y="165.04000000000002" as="targetPoint" />
            <Array as="points">
              <mxPoint x="544" y="220" />
            </Array>
          </mxGeometry>
        </mxCell>
        <mxCell id="gau0r2_wHREcoYPE5UDH-25" value="" style="endArrow=classic;html=1;rounded=0;" edge="1" parent="WIyWlLk6GJQsqaUBKTNV-1" source="WIyWlLk6GJQsqaUBKTNV-10" target="WIyWlLk6GJQsqaUBKTNV-6">
          <mxGeometry width="50" height="50" relative="1" as="geometry">
            <mxPoint x="319.9998692033292" y="230.0021046373365" as="sourcePoint" />
            <mxPoint x="513.0900000000001" y="304.65" as="targetPoint" />
          </mxGeometry>
        </mxCell>
        <mxCell id="gau0r2_wHREcoYPE5UDH-26" value="&lt;font color=&quot;#000000&quot;&gt;Схема ЖЦ дефекта&lt;/font&gt;" style="text;html=1;align=center;verticalAlign=middle;resizable=0;points=[];autosize=1;strokeColor=none;fillColor=none;fontColor=#7F00FF;fontStyle=1" vertex="1" parent="WIyWlLk6GJQsqaUBKTNV-1">
          <mxGeometry y="-60" width="130" height="20" as="geometry" />
        </mxCell>
      </root>
    </mxGraphModel>
  </diagram>
</mxfile>
